<?xml version="1.0" encoding="utf-8"?>
<!-- Generator: Adobe Illustrator 22.1.0, SVG Export Plug-In . SVG Version: 6.00 Build 0)  -->
<svg version="1.1" id="Lager_1" xmlns="http://www.w3.org/2000/svg" xmlns:xlink="http://www.w3.org/1999/xlink" x="0px" y="0px"
	 viewBox="0 0 1280 1024" style="enable-background:new 0 0 1280 1024;" xml:space="preserve">
<style type="text/css">
	.st0{fill:#BFB8B8;}
	.st1{fill:#070707;}
	.st2{fill:#F45656;}
	.st3{font-family:'Impact';}
	.st4{font-size:67.2755px;}
</style>
<polygon class="st0" points="399,412 437,425 328,583 283,553 "/>
<polygon class="st0" points="728,293.4 834,388 816,426 984,568 895,653 728,340 "/>
<path class="st1" d="M487,78.2l9,51.1c0,0-31,22.7,11,82.4v129.7c0,0,116,59.7,221,0V202.3c0,0,24-56.8,4-73.9l8-50.2
	C740,78.2,620-122.5,487,78.2z"/>
<path class="st1" d="M440,355c0,0-176,17-225,124c0,0-160,12-204,216c0,0,36,135,104,113c0,0,104.6-101.1,162.2-51.9
	c3.8,3.3,7.5,7.2,10.8,11.9c54,75-3-5-3-5l38.4-15.4L385,723c0,0,1-58,1-68c0,0-21-18-11-33c0,0,3-73-47-55c0,0,13-19,8-23
	s75-124,75-124l-44-1L440,355z"/>
<polygon class="st1" points="309,765 473,1024 640,1024 323,748 303.6,755.6 "/>
<polygon class="st1" points="972,704 627,1028 838.5,1024.5 "/>
<path d="M791,351c0,0,155,5,232,77c0,0,20,13,41,51c0,0,134,17,195,170c0,0,50,100-79,164c0,0-11,14-77-39c0,0-48-43-113-7l-99-45
	l2-47c0,0-10-8-3-35c0,0,9,16,15-34c0,0-5-40,50-38L816,426l18-38L791,351z"/>
<path class="st0" d="M507,340L365.8,578c0,0-10.8-22-37.8-11c0,0,13-18,8-23l75-124l-44-1l140-122.4V340z"/>
<g>
	
		<image style="overflow:visible;" width="275" height="89" xlink:href="C805114A0CBF1213.png"  transform="matrix(1 0 0 1 487 439)">
	</image>
	<g>
		<text transform="matrix(0.9175 0 0 1 485.0137 497.7603)" class="st2 st3 st4">Json Parse</text>
	</g>
</g>
<g>
	<g>
		<path d="M577.2,607c0-23.2,9.7-41.6,25.5-54.6l5.2,5c-15.2,13.6-22.3,29.3-22.3,49.5s7,35.9,22.3,49.5l-5.2,5
			C586.9,648.6,577.2,630.2,577.2,607z"/>
		<path d="M635.7,656.5c15.2-13.6,22.3-29.3,22.3-49.5s-7-35.9-22.3-49.5l5.2-5c15.8,13,25.5,31.4,25.5,54.6s-9.7,41.6-25.5,54.6
			L635.7,656.5z"/>
	</g>
</g>
<polygon style="fill:none;" points="952.9,1083.4 950.9,1083.4 950.9,1083.4 952.9,1083.4 "/>
</svg>
