<?xml version="1.0" encoding="utf-8"?>
<!-- Generator: Adobe Illustrator 22.1.0, SVG Export Plug-In . SVG Version: 6.00 Build 0)  -->
<svg version="1.1" id="Lager_1" xmlns="http://www.w3.org/2000/svg" xmlns:xlink="http://www.w3.org/1999/xlink" x="0px" y="0px"
	 viewBox="0 0 500 500" style="enable-background:new 0 0 500 500;" xml:space="preserve">
<style type="text/css">
	.st0{fill:#FFFFFF;}
	.st1{fill:#0A0A0A;}
</style>
<g>
	<g>
		<path class="st0" d="M103.8,250.4c0,7.2,0,14.4,0,21.6c0,1.9,3,1.9,3,0c0-7.2,0-14.4,0-21.6C106.8,248.4,103.8,248.4,103.8,250.4
			L103.8,250.4z"/>
	</g>
</g>
<g>
	<g>
		<path class="st0" d="M115.4,268.9c-0.1,12.1-0.1,24.2-0.2,36.3c1,0,2,0,3,0c-0.3-10.2,15.7-14.4,23.3-17.2
			c8.5-3.1,17.1-5.5,25.9-7.3c1.9-0.4,1.1-3.3-0.8-2.9c-11.8,2.4-23.2,5.9-34.3,10.6c-7.5,3.2-17.4,7.1-17.1,16.8c0.1,1.9,3,1.9,3,0
			c0.1-12.1,0.1-24.2,0.2-36.3C118.4,266.9,115.4,266.9,115.4,268.9L115.4,268.9z"/>
	</g>
</g>
<g>
	<g>
		<path class="st0" d="M166.7,275.9c-21.1,8.6-40.7,20-58.7,34.1c0.8,0.1,1.6,0.2,2.4,0.3c-2-3.5,5.1-11.9,7-14.9
			c2.8-4.5,5.5-9.1,8.3-13.6c5.7-9.3,11.3-18.7,17-28c11.2-18.4,22.4-36.8,33.5-55.2c1-1.7-1.6-3.2-2.6-1.5
			c-12.4,20.4-24.8,40.8-37.1,61.2c-6,9.9-12,19.8-18.1,29.7c-3.1,5.1-6.3,10.2-9.3,15.3c-1.7,2.9-3,5.5-1.3,8.6
			c0.5,0.9,1.6,0.9,2.4,0.3c17.5-13.7,36.8-24.9,57.3-33.3C169.3,278,168.5,275.1,166.7,275.9L166.7,275.9z"/>
	</g>
</g>
<g>
	<g>
		<path class="st1" d="M85.7,339.7c0.4,15.4-10.2,29-14.6,43.4c1,0.1,2,0.3,2.9,0.4c2.1-16.3,21.1-23.8,34.6-28
			c19.2-6,39.5-8.4,59.5-10.3c23.8-2.2,47.7-3.8,71.6-4.6c32.8-1.2,65.4,0.1,98.2,0.8c14.4,0.3,28.4-1,41.6-7.2
			c12.1-5.6,23.5-13.8,33.6-22.6c9.6-8.4,17.6-18.4,21.7-30.6c4.5-13.4,4.5-28,3.8-41.9c-0.8-15.5-2.4-30.9-4.6-46.2
			c-2.1-14.2-3.9-29.3-9.3-42.7c-8.9-22.6-30.3-32.2-53.3-34.5c-30.7-3-62.1,2.4-92.4,6.7c-33.1,4.6-66.4,8.6-99.7,11.7
			c-29.4,2.8-60.6,3.1-87.1,17.7c-12.3,6.8-23.3,15.8-33.4,25.5c-9.5,9.1-18.1,19.3-24.5,30.9c-12.2,22.1-16,51.5-1.4,73.4
			c13.5,20.3,38.1,28.6,59.9,36.6c58.2,21.5,119.7,37,182.1,36.8c54.4-0.2,109.3-13.1,156.4-40.7c11.8-6.9,23.1-14.8,33.7-23.4
			c10-8.2,19.1-17.3,22.3-30.2c6.4-25.4-5.8-53.6-20.1-74.1c-31.3-45.1-85.9-68.1-137.5-80.9c-52-12.9-107.4-14.3-159.2,0.6
			c-25.9,7.5-50.9,19-72.9,34.6C76.1,156.2,58,177.6,55,204.7c-1.6,14.9,2.7,29,8.2,42.6c4.9,12.4,10.7,24.6,18.8,35.2
			c15.9,20.6,39.9,28.4,64.7,32.3c61.6,9.6,125.7,12,187.3,1c28.4-5,56.3-13,82.8-24.2c13.6-5.8,26.9-12.4,39.7-19.8
			c10.3-6,22.5-12.4,29.9-22.1c7.5-10,5.7-21.2-0.8-31.2c-7.1-10.9-15.8-20.9-24.6-30.4c-17.7-18.9-38-35.3-60.2-48.5
			c-43.8-26.1-94.5-39.5-145.5-37.3c-55.4,2.4-109.3,22.1-154.7,53.6c-11.1,7.7-22.2,15.9-31.3,25.9c-9.1,9.9-15.3,21.5-19.3,34.4
			c-4.2,13.7-6.2,28.1-8.2,42.2c-1.6,12.1-2.8,24.5-0.7,36.6c1.8,10.6,6.7,20.5,15.3,27.2c9,7,20.4,9.8,31.4,12.2
			c-0.4-0.5-0.7-1-1.1-1.4c-0.3,3.1-0.7,6.2-1,9.3c-0.2,1.9,2.8,1.9,3,0c0.3-3.1,0.7-6.2,1-9.3c0.1-0.6-0.5-1.3-1.1-1.4
			c-11.9-2.6-24.7-5.7-33.7-14.6c-9.1-9-11.8-22.1-11.9-34.5c-0.2-12.8,1.9-25.6,3.9-38.2c2.3-14,5.1-28.3,11.3-41.2
			c11.8-24.2,36.6-40.7,58.9-54.4c22.8-13.9,47.3-25,72.9-32.5c49.3-14.4,102.1-15,151.3,0.2c47.3,14.6,90.1,42.7,122.9,79.8
			c3.9,4.4,7.7,9,11.3,13.7c4.4,5.7,9.4,11.7,11.8,18.6c5.2,15-7.5,25.1-18.6,32.3c-23.2,15.2-48.3,27.3-74.4,36.4
			c-55.5,19.4-114.8,24.9-173.3,22.1c-28.5-1.4-57.9-3.6-85.9-9.6c-12.7-2.8-25.4-7-36.1-14.7c-10.9-7.8-18.7-18.8-24.8-30.5
			c-6.3-12.2-12-25.5-15-38.9c-3.3-15.1-0.9-30.7,5.9-44.5c11.9-24.1,35.1-40,58.1-52.3c46.1-24.7,99.1-33.4,151-29.2
			c25.6,2.1,50.9,7.2,75.4,14.8c26.1,8.1,51.9,18.8,74.6,34.2c22,15,40.6,35.1,51.9,59.3c5.7,12.3,9.9,25.8,9.8,39.4
			c-0.1,14.7-6.1,26.4-16.8,36.2c-39.2,35.6-91.7,56.6-143.5,64.6c-56.4,8.8-114,2-168.9-12.5C128.8,328.1,101,319,74.4,308
			c-11-4.5-21.9-10-30.6-18.2c-10-9.3-15.8-21.7-17-35.3c-2.5-27.7,11.9-52.5,30.7-71.6c9.8-9.9,20.5-19.1,32.5-26.3
			c12.6-7.6,26.5-12,41-14.4c14.7-2.5,29.6-3.3,44.4-4.7c15.7-1.5,31.5-3.1,47.2-4.9c30.1-3.5,60-8.2,90.1-11.7
			c15.6-1.8,31.3-3.1,47.1-2.8c11.3,0.2,22.7,1.4,33.4,5.4c11.5,4.3,21.2,12.1,26.8,23.2c6.6,13.1,8.4,28.9,10.6,43.2
			c2.3,15.1,3.9,30.3,4.9,45.6c0.8,13.8,1.3,28.1-2.4,41.5c-3.8,13.6-12.5,24.5-23.1,33.5c-10,8.5-21.2,16.6-33.3,21.8
			c-14,6.1-29.1,6.5-44.2,5.9c-15.7-0.6-31.4-1.2-47.1-1.3c-29.7-0.2-59.3,0.9-88.9,3.1c-17.2,1.3-34.3,2.5-51.4,4.8
			c-17.4,2.4-35.3,5.6-51.3,13.1c-10.8,5.1-21,13-22.7,25.5c-0.2,1.7,2.5,1.9,2.9,0.4c4.5-14.6,15.1-28.4,14.7-44.2
			C88.6,337.8,85.6,337.8,85.7,339.7L85.7,339.7z"/>
	</g>
</g>
<g>
	<g>
		<path d="M136.3,216h-4v-1.6h9.6v1.6h-4v13.5h-1.6V216z"/>
		<path d="M144.4,227.9h3V216h-3v-1.6h7.6v1.6h-3v11.9h3v1.6h-7.6V227.9z"/>
		<path d="M155.6,214.3h3.7c2.7,0,4.5,1.1,4.5,4.5c0,3.2-1.8,4.7-4.5,4.7h-2.1v6h-1.6V214.3z M159.1,221.9c2.1,0,3.1-1,3.1-3.1
			c0-2.2-1-2.9-3.1-2.9h-1.9v6H159.1z"/>
		<path d="M168.9,219.5c0-1.2,0.7-2,1.5-2s1.5,0.8,1.5,2c0,1.2-0.7,2-1.5,2S168.9,220.7,168.9,219.5z M168.9,227.8
			c0-1.2,0.7-2,1.5-2s1.5,0.8,1.5,2c0,1.2-0.7,2-1.5,2S168.9,229,168.9,227.8z"/>
		<path d="M188.3,221.9c0-4.9,2.3-7.9,5.4-7.9c1.5,0,2.6,0.9,3.3,1.8l-0.9,1.2c-0.6-0.8-1.4-1.4-2.4-1.4c-2.3,0-3.8,2.3-3.8,6.1
			c0,3.8,1.5,6.2,3.8,6.2c1.1,0,2-0.6,2.7-1.7l0.9,1.2c-0.9,1.4-2.1,2.2-3.8,2.2C190.6,229.8,188.3,226.9,188.3,221.9z"/>
		<path d="M199.3,223.9c0-3.8,2.1-5.9,4.4-5.9s4.4,2.1,4.4,5.9c0,3.7-2.1,5.9-4.4,5.9S199.3,227.6,199.3,223.9z M206.6,223.9
			c0-2.6-1.1-4.3-2.9-4.3s-2.9,1.7-2.9,4.3c0,2.6,1.1,4.3,2.9,4.3S206.6,226.5,206.6,223.9z"/>
		<path d="M210.4,223.9c0-3.7,1.9-5.9,4.1-5.9c1.1,0,1.9,0.5,2.7,1.4h0l-0.1-2.1V213h1.5v16.5h-1.3l-0.1-1.5h-0.1
			c-0.7,0.9-1.8,1.8-2.9,1.8C212,229.8,210.4,227.7,210.4,223.9z M217.1,226.5v-5.6c-0.8-0.9-1.6-1.3-2.4-1.3
			c-1.6,0-2.8,1.7-2.8,4.3c0,2.7,1,4.3,2.6,4.3C215.5,228.2,216.3,227.6,217.1,226.5z"/>
		<path d="M221.7,223.9c0-3.7,2.2-5.9,4.6-5.9c2.6,0,4.1,2.1,4.1,5.3c0,0.4,0,0.9-0.1,1.2h-7.6v-1.5h6.7l-0.4,0.5c0-2.7-1.1-4-2.7-4
			c-1.7,0-3.1,1.6-3.1,4.4c0,2.9,1.5,4.4,3.5,4.4c1.1,0,1.9-0.4,2.7-1.1l0.6,1.2c-0.9,0.7-2,1.3-3.5,1.3
			C223.8,229.8,221.7,227.6,221.7,223.9z"/>
		<path d="M244,225.3v-7h1.5v6.7c0,2.1,0.6,3.1,2.1,3.1c1,0,1.8-0.6,2.8-2.1v-7.8h1.5v11.2h-1.3l-0.1-2h-0.1c-0.9,1.3-2,2.2-3.4,2.2
			C245,229.8,244,228.2,244,225.3z"/>
		<path d="M255.4,218.3h1.3l0.1,1.9h0.1c0.9-1.2,2-2.2,3.4-2.2c2.1,0,3.1,1.6,3.1,4.5v7h-1.5v-6.7c0-2.1-0.6-3.1-2.1-3.1
			c-1.1,0-1.8,0.7-2.8,2v7.8h-1.5V218.3z"/>
		<path d="M265.9,223.9c0-3.7,1.9-5.9,4.1-5.9c1.1,0,1.9,0.5,2.7,1.4h0l-0.1-2.1V213h1.5v16.5h-1.3l-0.1-1.5h-0.1
			c-0.7,0.9-1.8,1.8-2.9,1.8C267.5,229.8,265.9,227.7,265.9,223.9z M272.7,226.5v-5.6c-0.8-0.9-1.6-1.3-2.4-1.3
			c-1.6,0-2.8,1.7-2.8,4.3c0,2.7,1,4.3,2.6,4.3C271,228.2,271.9,227.6,272.7,226.5z"/>
		<path d="M277.2,223.9c0-3.7,2.2-5.9,4.6-5.9c2.6,0,4.1,2.1,4.1,5.3c0,0.4,0,0.9-0.1,1.2h-7.6v-1.5h6.7l-0.4,0.5c0-2.7-1.1-4-2.7-4
			c-1.7,0-3.1,1.6-3.1,4.4c0,2.9,1.5,4.4,3.5,4.4c1.1,0,1.9-0.4,2.7-1.1l0.6,1.2c-0.9,0.7-2,1.3-3.5,1.3
			C279.3,229.8,277.2,227.6,277.2,223.9z"/>
		<path d="M289.7,218.3h1.3l0.1,2.7h0c0.9-1.8,2.4-2.9,4-2.9c0.7,0,1.2,0.1,1.8,0.5l-0.4,1.6c-0.6-0.3-1-0.4-1.7-0.4
			c-1.4,0-2.6,0.9-3.7,3.2v6.6h-1.5V218.3z"/>
		<path d="M298.3,218.3h1.5l1.1,6.5c0.2,1.1,0.3,2,0.4,3.1h0.1c0.1-1.1,0.3-2.1,0.5-3.1l1.1-5.8h1.5l1.1,5.8c0.2,1.1,0.4,2,0.6,3.1
			h0.1c0.1-1.1,0.2-2,0.4-3.1l1.1-6.5h1.4l-1.9,11.2h-2l-1-5.4c-0.1-0.8-0.3-1.9-0.4-3.3h-0.1c-0.1,1.4-0.3,2.5-0.4,3.3l-1,5.4h-2
			L298.3,218.3z"/>
		<path d="M310.7,226.6c0-2.5,1.9-3.7,6.5-4.2c-0.1-1.5-0.6-2.8-2.4-2.8c-1.2,0-2.3,0.7-3.1,1.3l-0.6-1.3c0.9-0.7,2.4-1.6,4-1.6
			c2.5,0,3.7,1.8,3.7,4.6v6.9h-1.3l-0.1-1.5h-0.1c-1,1-2.3,1.8-3.5,1.8C312.1,229.8,310.7,228.6,310.7,226.6z M317.3,226.6v-2.9
			c-3.9,0.4-5,1.3-5,2.8c0,1.3,0.9,1.8,2,1.8C315.2,228.2,316.2,227.6,317.3,226.6z"/>
		<path d="M324.2,225.1v-5.3h-2.6v-1.4l2.6-0.1l0.2-3.6h1.3v3.6h4.4v1.5h-4.4v5.3c0,2,0.5,3.1,2.3,3.1c0.8,0,1.5-0.2,2.1-0.5
			l0.3,1.4c-0.8,0.4-1.7,0.7-2.8,0.7C325,229.8,324.2,227.9,324.2,225.1z"/>
		<path d="M332.7,223.9c0-3.7,2.2-5.9,4.6-5.9c2.6,0,4.1,2.1,4.1,5.3c0,0.4,0,0.9-0.1,1.2h-7.6v-1.5h6.7l-0.4,0.5c0-2.7-1.1-4-2.7-4
			c-1.7,0-3.1,1.6-3.1,4.4c0,2.9,1.5,4.4,3.5,4.4c1.1,0,1.9-0.4,2.7-1.1l0.6,1.2c-0.9,0.7-2,1.3-3.5,1.3
			C334.9,229.8,332.7,227.6,332.7,223.9z"/>
		<path d="M345.3,218.3h1.3l0.1,2.7h0c0.9-1.8,2.4-2.9,4-2.9c0.7,0,1.2,0.1,1.8,0.5l-0.4,1.6c-0.6-0.3-1-0.4-1.7-0.4
			c-1.4,0-2.6,0.9-3.7,3.2v6.6h-1.5V218.3z"/>
		<path d="M357.7,227.8c0-1.2,0.7-2,1.5-2s1.5,0.8,1.5,2c0,1.2-0.7,2-1.5,2S357.7,229,357.7,227.8z"/>
		<path d="M133.1,242.1h1.7l3.9,9.5l1.2,3.1h0c-0.1-1.5-0.2-3.2-0.2-4.8v-7.9h1.5v15.2h-1.7l-3.9-9.5l-1.2-3.1h0
			c0.1,1.5,0.2,3.2,0.2,4.7v7.9h-1.5V242.1z"/>
		<path d="M143.8,251.6c0-3.8,2.1-5.9,4.4-5.9s4.4,2.2,4.4,5.9c0,3.7-2.1,5.9-4.4,5.9S143.8,255.4,143.8,251.6z M151.1,251.6
			c0-2.6-1.1-4.3-2.9-4.3s-2.9,1.7-2.9,4.3c0,2.6,1.1,4.3,2.9,4.3S151.1,254.2,151.1,251.6z"/>
		<path d="M156.9,256L156.9,256l-0.2,1.2h-1.2v-16.5h1.5v4.5l-0.1,2.2h0.1c0.8-1,2-1.7,3-1.7c2.4,0,3.7,2.2,3.7,5.7
			c0,3.8-1.9,6.1-4.1,6.1C158.8,257.5,157.7,256.9,156.9,256z M162.2,251.5c0-2.5-0.7-4.1-2.5-4.1c-0.8,0-1.7,0.5-2.6,1.7v5.6
			c0.8,0.9,1.8,1.3,2.4,1.3C161,255.9,162.2,254.2,162.2,251.5z"/>
		<path d="M166,251.6c0-3.8,2.1-5.9,4.4-5.9s4.4,2.2,4.4,5.9c0,3.7-2.1,5.9-4.4,5.9S166,255.4,166,251.6z M173.3,251.6
			c0-2.6-1.1-4.3-2.9-4.3s-2.9,1.7-2.9,4.3c0,2.6,1.1,4.3,2.9,4.3S173.3,254.2,173.3,251.6z"/>
		<path d="M177.1,251.6c0-3.7,1.9-5.9,4.1-5.9c1.1,0,1.9,0.5,2.7,1.4h0l-0.1-2.1v-4.3h1.5v16.5h-1.3l-0.1-1.5h-0.1
			c-0.7,0.9-1.8,1.8-2.9,1.8C178.6,257.5,177.1,255.4,177.1,251.6z M183.8,254.2v-5.6c-0.8-0.9-1.6-1.3-2.4-1.3
			c-1.6,0-2.8,1.7-2.8,4.3c0,2.7,1,4.3,2.6,4.3C182.2,255.9,183,255.3,183.8,254.2z"/>
		<path d="M188.3,261.8l0.3-1.5c0.2,0.1,0.5,0.2,0.8,0.2c1.3,0,2-1,2.5-2.4l0.3-0.8L188,246h1.6l2.2,6.2c0.4,1,0.7,2.2,1.1,3.3h0.1
			c0.3-1.1,0.7-2.2,1-3.3l1.9-6.2h1.5l-4,12.2c-0.7,2.2-1.8,3.9-3.8,3.9C189.1,262.1,188.6,262,188.3,261.8z"/>
		<path d="M209.4,246h1.5l1.1,6.5c0.2,1.1,0.3,2,0.4,3.1h0.1c0.1-1.1,0.3-2.1,0.5-3.1l1.1-5.8h1.5l1.1,5.8c0.2,1.1,0.4,2,0.6,3.1
			h0.1c0.1-1.1,0.2-2,0.4-3.1l1.1-6.5h1.4l-1.9,11.2h-2l-1-5.4c-0.1-0.8-0.3-1.9-0.4-3.3h-0.1c-0.1,1.4-0.3,2.5-0.4,3.3l-1,5.4h-2
			L209.4,246z"/>
		<path d="M226.2,247.6h-4.2V246h5.7v11.2h-1.5V247.6z M225.6,242.2c0-0.9,0.5-1.5,1.2-1.5c0.7,0,1.2,0.6,1.2,1.5
			c0,0.9-0.5,1.5-1.2,1.5C226.1,243.6,225.6,243.1,225.6,242.2z"/>
		<path d="M236.1,253.5v-11.1h-3.2v-1.5h4.7v12.8c0,1.6,0.7,2.3,1.8,2.3c0.5,0,1.1-0.2,1.7-0.5l0.4,1.4c-0.8,0.4-1.4,0.7-2.4,0.7
			C237.1,257.5,236.1,256.1,236.1,253.5z"/>
		<path d="M247.2,253.5v-11.1H244v-1.5h4.7v12.8c0,1.6,0.7,2.3,1.8,2.3c0.5,0,1.1-0.2,1.7-0.5l0.4,1.4c-0.8,0.4-1.4,0.7-2.4,0.7
			C248.2,257.5,247.2,256.1,247.2,253.5z"/>
		<path d="M266.1,255.8l0.7-1.3c1,0.9,2.3,1.5,3.9,1.5c1.5,0,2.3-0.8,2.3-1.7c0-0.9-0.4-1.5-2.8-2.1c-2.4-0.6-3.5-1.6-3.5-3.3
			c0-1.8,1.3-3.2,3.7-3.2c1.4,0,2.7,0.7,3.6,1.4l-0.7,1.2c-0.8-0.7-1.9-1.2-3-1.2c-1.5,0-2.1,0.8-2.1,1.6c0,1,0.8,1.4,2.6,1.9
			c3,0.8,3.7,1.7,3.7,3.5c0,1.8-1.4,3.4-4,3.4C268.8,257.5,267.2,256.7,266.1,255.8z"/>
		<path d="M277.2,251.6c0-3.7,2.2-5.9,4.6-5.9c2.6,0,4.1,2.1,4.1,5.3c0,0.4,0,0.9-0.1,1.2h-7.6v-1.5h6.7l-0.4,0.5c0-2.7-1.1-4-2.7-4
			c-1.7,0-3.1,1.6-3.1,4.4c0,2.9,1.5,4.4,3.5,4.4c1.1,0,1.9-0.4,2.7-1.1l0.6,1.2c-0.9,0.7-2,1.3-3.5,1.3
			C279.3,257.5,277.2,255.3,277.2,251.6z"/>
		<path d="M288.3,251.6c0-3.7,2.2-5.9,4.6-5.9c2.6,0,4.1,2.1,4.1,5.3c0,0.4,0,0.9-0.1,1.2h-7.6v-1.5h6.7l-0.4,0.5c0-2.7-1.1-4-2.7-4
			c-1.7,0-3.1,1.6-3.1,4.4c0,2.9,1.5,4.4,3.5,4.4c1.1,0,1.9-0.4,2.7-1.1l0.6,1.2c-0.9,0.7-2,1.3-3.5,1.3
			C290.4,257.5,288.3,255.3,288.3,251.6z"/>
		<path d="M310.5,261.8l0.3-1.5c0.2,0.1,0.5,0.2,0.8,0.2c1.3,0,2-1,2.5-2.4l0.3-0.8l-4.2-11.3h1.6l2.2,6.2c0.4,1,0.7,2.2,1.1,3.3
			h0.1c0.3-1.1,0.7-2.2,1-3.3l1.9-6.2h1.5l-4,12.2c-0.7,2.2-1.8,3.9-3.8,3.9C311.3,262.1,310.8,262,310.5,261.8z"/>
		<path d="M321.5,251.6c0-3.8,2.1-5.9,4.4-5.9s4.4,2.2,4.4,5.9c0,3.7-2.1,5.9-4.4,5.9S321.5,255.4,321.5,251.6z M328.8,251.6
			c0-2.6-1.1-4.3-2.9-4.3s-2.9,1.7-2.9,4.3c0,2.6,1.1,4.3,2.9,4.3S328.8,254.2,328.8,251.6z"/>
		<path d="M332.9,253v-7h1.5v6.7c0,2.1,0.6,3.1,2.1,3.1c1,0,1.8-0.6,2.8-2.1V246h1.5v11.2h-1.3l-0.1-2h-0.1c-0.9,1.3-2,2.2-3.3,2.2
			C333.9,257.5,332.9,255.9,332.9,253z"/>
		<path d="M355.2,251.6c0-3.8,2.3-5.9,5-5.9c1.5,0,2.5,0.7,3.3,1.6l-0.8,1.2c-0.7-0.8-1.5-1.3-2.5-1.3c-2.1,0-3.5,1.7-3.5,4.3
			c0,2.6,1.4,4.3,3.5,4.3c1.1,0,2-0.6,2.8-1.4l0.7,1.2c-1,1.1-2.2,1.8-3.6,1.8C357.3,257.5,355.2,255.4,355.2,251.6z"/>
		<path d="M367.5,246h1.3l0.1,2.7h0c0.9-1.8,2.4-2.9,4-2.9c0.7,0,1.2,0.1,1.8,0.5l-0.4,1.6c-0.6-0.3-1-0.4-1.7-0.4
			c-1.4,0-2.6,0.9-3.7,3.2v6.6h-1.5V246z"/>
		<path d="M377.1,261.8l0.3-1.5c0.2,0.1,0.5,0.2,0.8,0.2c1.3,0,2-1,2.5-2.4l0.3-0.8l-4.2-11.3h1.6l2.2,6.2c0.4,1,0.7,2.2,1.1,3.3
			h0.1c0.3-1.1,0.7-2.2,1-3.3l1.9-6.2h1.5l-4,12.2c-0.7,2.2-1.8,3.9-3.8,3.9C377.9,262.1,377.4,262,377.1,261.8z"/>
		<path d="M391.2,255.7c0-1.1,0.6-1.8,1.4-1.8s1.4,0.7,1.4,1.8c0,1.1-0.6,1.8-1.4,1.8S391.2,256.8,391.2,255.7z M391.8,243.9l0-2.2
			h1.5l0,2.2l-0.2,7.9h-1L391.8,243.9z"/>
	</g>
</g>
</svg>
