<?xml version="1.0" encoding="utf-8"?>
<!-- Generator: Adobe Illustrator 22.1.0, SVG Export Plug-In . SVG Version: 6.00 Build 0)  -->
<svg version="1.1" id="Lager_1" xmlns="http://www.w3.org/2000/svg" xmlns:xlink="http://www.w3.org/1999/xlink" x="0px" y="0px"
	 viewBox="0 0 1280 1024" style="enable-background:new 0 0 1280 1024;" xml:space="preserve">
<style type="text/css">
	.st0{fill:#BFB8B8;}
	.st1{fill:#070707;}
	.st2{fill:#474747;}
	.st3{fill:#F45656;}
	.st4{font-family:'Impact';}
	.st5{font-size:63.197px;}
</style>
<polygon class="st0" points="399,412 437,425 328,583 283,553 "/>
<polygon class="st0" points="728,293.4 834,388 816,426 984,568 895,653 728,340 "/>
<path class="st1" d="M487,90.5l9,49c0,0-31,21.8,11,78.9v124.3c0,0,116,57.1,221,0V209.3c0,0,24-54.4,4-70.7l8-48.1
	C740,90.5,620-101.8,487,90.5z"/>
<path class="st1" d="M440,355c0,0-176,17-225,124c0,0-160,12-204,216c0,0,36,135,104,113c0,0,104.6-101.1,162.2-51.9
	c3.8,3.3,7.5,7.2,10.8,11.9c54,75-3-5-3-5l38.4-15.4L385,723c0,0,1-58,1-68c0,0-21-18-11-33c0,0,3-73-47-55c0,0,13-19,8-23
	s75-124,75-124l-44-1L440,355z"/>
<polygon class="st1" points="285,765 449,1024 616,1024 299,748 279.6,755.6 "/>
<polygon class="st1" points="1020,704 675,1028 886.5,1024.5 "/>
<path d="M791,351c0,0,155,5,232,77c0,0,20,13,41,51c0,0,134,17,195,170c0,0,50,100-79,164c0,0-11,14-77-39c0,0-48-43-113-7l-99-45
	l2-47c0,0-10-8-3-35c0,0,9,16,15-34c0,0-5-40,50-38L816,426l18-38L791,351z"/>
<path class="st0" d="M507,340L365.8,578c0,0-10.8-22-37.8-11c0,0,13-18,8-23l75-124l-44-1l140-122.4V340z"/>
<polygon style="fill:none;" points="952.9,1083.4 950.9,1083.4 950.9,1083.4 952.9,1083.4 "/>
<path class="st2" d="M505.5,339c0,0,120.7,66.1,224.1,0l164.3,300.4c0,0-7.1,23,3,35.1l-2,47.1l75.1,33.7L680.2,1024H616L302,754
	l79.7-31.5l1-68.1c0,0-22.3-18-11.2-33c0,0,1-27-9.1-44.1L505.5,339z"/>
<g>
	
		<image style="overflow:visible;" width="322" height="84" xlink:href="B0D9FB2727F39FEE.png"  transform="matrix(1 0 0 1 463 457)">
	</image>
	<g>
		<text transform="matrix(1.1473 0 0 1 461.0137 512.1084)" class="st3 st4 st5">Json Parse</text>
	</g>
</g>
<g>
	<g>
		<path d="M549.8,660.4c0-36.3,17.7-65,46.6-85.3l9.6,7.9c-27.8,21.2-40.7,45.9-40.7,77.4c0,31.6,12.9,56.2,40.7,77.4l-9.6,7.9
			C567.5,725.4,549.8,696.7,549.8,660.4z"/>
		<path d="M656.7,737.9c27.8-21.2,40.7-45.9,40.7-77.4c0-31.6-12.9-56.2-40.7-77.4l9.6-7.9c28.9,20.3,46.6,49.1,46.6,85.3
			c0,36.3-17.7,65-46.6,85.3L656.7,737.9z"/>
	</g>
</g>
</svg>
