<?xml version="1.0" encoding="utf-8"?>
<!-- Generator: Adobe Illustrator 22.1.0, SVG Export Plug-In . SVG Version: 6.00 Build 0)  -->
<svg version="1.1" id="Lager_1" xmlns="http://www.w3.org/2000/svg" xmlns:xlink="http://www.w3.org/1999/xlink" x="0px" y="0px"
	 viewBox="0 0 1280 1024" style="enable-background:new 0 0 1280 1024;" xml:space="preserve">
<style type="text/css">
	.st0{fill:#0C0C0C;}
	.st1{fill:#FFFFFF;}
</style>
<path class="st0" d="M635.2,228.7l-6.4-14.2l-9-16.8l3.2-9.7l-12-18.7l3.6-5.8l-7.7-30.3l-9,8.4v-26.5l-10.3-5.8l20.6-9l-8.4-16.1
	l11.6,5.8v-5.8H623l-8.4-15.5l10.9,4.5l5.1-14.2l14.8,16.1l28.3-29.7v7.7l18.7-7.7l-5.8,14.8l45.7-5.8l-8.4,9.7l22.5-2.6l-5.1,11.6
	l29.6,26.5l-12.9,3.2l5.8,9l-9,2.6l16.1,5.8l-4.5,11l9,5.8v19.4l35.4-13.6l113.8-21.3l38.3-16.2l39.5-2.2l131.3-9
	c0,0,41.8,9.7,32.8,150.5l32.1,16.5l-3.7,30.7l-21.6,28.4l-20.9,8.2l-62.7-24.7l13.4-24l3-12.7c0,0-5.2-47.2-26.1-80.1
	c0,0-11.9-21.8-26.9,0c0,0-27.6,34.5-125.3,53.2l-14.3,21.2l3.9,56.8l-6.8,26.5l-2,40.2l-31.3,67.6c0,0,58.6-68.6,128.9-36.3
	l53.7,6.9l17.6,43.4l-8.8,45c0,0,7.8,67.4-99.6,138l-8.8,33.3l30.3,109.8l24.4,13.7l25.4,5.9c0,0,17.6,44.1-21.5,46.1h-31.3
	l-35.2-4.9l-26.4-19.6c0,0-14.6-127.4-45.9-157.8l-4.9-22.5l5.9-22.5l26.4-13.7h18.6v-22.5l-28.3,14.7l-32.2,19.6l-67.4-2.9
	l-34.2,7.8l-43.9-9.8c0,0-42,39.2-203.1,9.8l-11.7,26.5l-43,69.6l-27.3,56.8l32.2,41.2l14.6,30.4l2.9,17.6c0,0,23.4,23.5,37.1,17.6
	c0,0,21.5,37.2-29.3,22.5c0,0-24.4,5.9-44.9-42.1l-29.3,6.9l-17.6,50l-18.6,48h-31.3l-19.5-8.8l25.4-29.4l15.6-53.9
	c0,0-11.7-37.2-52.7,16.7L305,915.9l-49.8,8.8l-15.6-20.6l19.5-18.6l27.3-2l8.8-21.6l22.5-17.6l21.5-19.6l30.3-66.6l34.2-91.1
	l-35.2,2.9l-28.3,13.7h-17.6c0,0-45.9,37.2-76.2,21.6l3.1,12.7l-16.7,18.8l-34.4-2.1c0,0-14.6-5.2-59.3,66.9L109,818.2l-31.2,2.1
	l-18.7-11.5L47.6,790l25-20.9l27.1-5.2c0,0,44.8-42.8,81.2-67.9l33.3-51.2l27.1-30.3l50-15.7l33.3-5.2l42.7-19.8l34.4-30.3
	l39.6-16.7l30.2-9.4l15.6-51l3.1-38.9l39.6-39.7l2.1-13.6l65.6-91.9L635.2,228.7z"/>
<polygon class="st1" points="582.1,495.1 606.5,427.6 632.2,447.1 653.5,452.5 664.1,478.3 664.1,490.7 657,504.9 "/>
</svg>
